<?xml version="1.0" standalone="no"?>
<!DOCTYPE svg PUBLIC "-//W3C//DTD SVG 20010904//EN"
 "http://www.w3.org/TR/2001/REC-SVG-20010904/DTD/svg10.dtd">
<svg version="1.0" xmlns="http://www.w3.org/2000/svg"
 width="553.000000pt" height="553.000000pt" viewBox="0 0 553.000000 553.000000"
 preserveAspectRatio="xMidYMid meet">
<metadata>
Created by potrace 1.14, written by Peter Selinger 2001-2017
</metadata>
<g transform="translate(0.000000,553.000000) scale(0.100000,-0.100000)"
fill="#000000" stroke="none">
<path d="M2740 4622 c-14 -2 -31 -9 -39 -15 -12 -9 -13 -9 -7 1 4 6 3 12 -3
12 -5 0 -12 -6 -14 -12 -4 -10 -6 -10 -6 -1 -1 9 -8 10 -25 3 -16 -6 -28 -5
-36 3 -9 8 -11 8 -7 1 5 -8 -12 -14 -51 -19 -31 -4 -59 -6 -60 -5 -2 1 -10 -7
-19 -17 -8 -10 -12 -12 -8 -5 8 15 0 15 -26 2 -14 -8 -19 -7 -19 2 0 10 -2 10
-9 -1 -5 -7 -14 -10 -20 -7 -6 4 -11 3 -11 -2 0 -9 -56 -26 -74 -23 -5 1 -12
-2 -15 -8 -4 -5 -18 -12 -33 -15 -14 -2 -35 -9 -46 -15 -11 -6 -22 -7 -26 -4
-3 3 -6 1 -6 -6 0 -7 -4 -9 -10 -6 -5 3 -10 1 -10 -6 0 -7 -3 -9 -6 -6 -4 3
-16 1 -28 -5 -11 -7 -27 -13 -35 -14 -8 -2 -17 -8 -21 -14 -4 -7 -11 -12 -16
-12 -27 -2 -63 -21 -57 -31 4 -6 0 -8 -10 -4 -9 3 -23 0 -31 -8 -8 -8 -19 -15
-25 -15 -6 0 -11 -5 -11 -11 0 -5 -5 -7 -11 -4 -6 4 -20 -2 -32 -12 -12 -11
-41 -31 -64 -43 -24 -13 -43 -27 -43 -32 0 -4 -7 -8 -15 -8 -7 0 -19 -8 -24
-17 -6 -10 -11 -14 -11 -8 0 5 -7 -1 -16 -13 -8 -12 -19 -20 -24 -17 -5 3 -11
-4 -15 -15 -3 -11 -10 -19 -14 -17 -4 1 -28 -19 -54 -44 -25 -26 -48 -45 -51
-42 -2 2 -7 -5 -11 -16 -3 -11 -15 -23 -26 -26 -10 -4 -17 -10 -14 -15 3 -5
-4 -11 -15 -15 -11 -4 -18 -10 -15 -15 3 -5 -1 -12 -9 -17 -9 -5 -30 -30 -49
-56 -18 -26 -37 -45 -40 -42 -4 3 -5 2 -2 -1 5 -7 -23 -61 -43 -82 -7 -8 -10
-17 -7 -22 3 -4 -2 -11 -11 -14 -8 -3 -13 -10 -10 -15 3 -5 -1 -12 -9 -15 -8
-3 -15 -9 -14 -13 2 -15 -13 -53 -22 -53 -5 0 -8 -3 -7 -7 1 -5 -6 -22 -15
-40 -9 -18 -17 -39 -17 -48 0 -8 -5 -15 -11 -15 -6 0 -9 -6 -6 -14 3 -8 3 -16
-1 -18 -4 -2 -15 -29 -25 -61 -10 -31 -22 -55 -27 -52 -4 3 -6 -3 -3 -14 3
-10 -3 -33 -12 -51 -10 -20 -12 -29 -4 -25 8 6 10 4 3 -6 -4 -8 -10 -20 -11
-26 -5 -24 -11 -48 -13 -53 -4 -10 -7 -25 -8 -43 -1 -12 -6 -15 -15 -11 -8 5
-8 2 2 -9 7 -9 9 -17 3 -17 -5 0 -8 -9 -5 -20 3 -12 0 -20 -7 -20 -10 0 -10
-3 0 -15 7 -8 8 -15 3 -15 -9 0 -15 -42 -14 -92 0 -10 -3 -18 -7 -18 -12 0 -2
-233 13 -335 4 -22 8 -51 10 -65 2 -14 6 -36 10 -50 10 -39 16 -73 18 -97 1
-13 6 -23 10 -23 5 0 6 -4 2 -9 -3 -5 0 -13 6 -16 5 -4 8 -13 5 -21 -3 -7 -1
-16 5 -20 6 -3 8 -12 5 -20 -3 -8 -1 -14 5 -14 6 0 8 -7 5 -15 -3 -9 1 -18 9
-21 7 -3 12 -11 9 -17 -2 -7 7 -33 20 -60 13 -26 19 -44 13 -40 -6 4 -1 -7 11
-24 12 -17 19 -33 15 -36 -3 -4 2 -9 11 -13 9 -3 14 -10 11 -14 -3 -5 2 -15
10 -23 18 -19 20 -31 3 -21 -7 4 -3 -4 10 -18 12 -13 22 -30 22 -36 0 -7 5
-12 11 -12 5 0 7 -4 4 -10 -3 -5 -1 -10 5 -10 6 0 9 -4 6 -9 -4 -5 -3 -11 2
-13 4 -1 20 -23 34 -48 14 -25 38 -58 52 -75 15 -16 32 -42 38 -57 7 -15 16
-25 20 -22 4 3 12 -6 19 -18 7 -13 20 -29 31 -36 10 -7 18 -20 18 -29 0 -9 3
-14 6 -10 8 8 34 -18 34 -33 0 -6 5 -8 10 -5 6 3 10 -2 10 -11 0 -10 2 -15 6
-12 3 3 21 -10 41 -28 20 -19 40 -34 44 -34 5 0 9 -7 9 -16 0 -8 4 -13 8 -10
5 3 24 -8 43 -25 19 -16 38 -29 42 -29 14 0 36 -27 29 -35 -4 -5 -2 -5 4 -2 7
4 23 -2 36 -13 14 -11 28 -16 32 -13 3 3 6 1 6 -6 0 -6 11 -16 25 -21 14 -5
25 -14 25 -19 0 -6 7 -8 15 -5 8 4 15 1 15 -6 0 -6 5 -8 10 -5 6 3 10 1 10 -4
0 -6 9 -11 21 -11 11 0 17 -4 14 -10 -3 -5 3 -10 14 -10 11 0 22 -4 26 -9 3
-5 22 -15 43 -22 20 -6 40 -16 43 -21 3 -5 15 -10 26 -12 12 -3 35 -12 52 -20
16 -9 41 -16 56 -16 14 0 25 -4 25 -8 0 -9 7 -10 55 -13 14 -1 25 -5 25 -9 0
-5 8 -7 18 -5 9 1 30 -4 46 -12 20 -10 26 -11 21 -2 -6 8 -4 10 6 3 16 -10 32
-13 76 -17 18 -1 33 -6 33 -12 0 -5 5 -4 11 2 7 7 21 8 40 3 17 -5 31 -5 35 1
3 5 11 6 17 2 20 -13 227 -11 227 1 0 7 3 8 8 1 6 -9 26 -12 35 -5 7 5 59 5
69 -1 6 -4 22 0 35 8 19 12 23 13 23 2 0 -10 2 -11 8 -2 4 6 20 10 35 9 15 -2
30 1 33 6 3 5 15 6 26 2 13 -4 18 -2 14 4 -4 6 1 11 11 11 10 -1 32 2 48 6 17
4 37 8 45 9 8 1 25 8 38 14 12 7 22 10 22 6 0 -3 8 0 17 7 13 11 15 11 9 1 -7
-11 -4 -11 12 -1 12 7 18 17 15 23 -3 5 -2 6 4 3 13 -8 83 14 83 25 0 5 4 7 9
3 5 -3 12 -1 16 5 3 5 15 10 26 10 10 0 19 5 19 10 0 6 7 10 16 10 8 0 12 4 9
10 -3 5 0 7 8 4 8 -3 21 2 30 10 9 9 20 16 26 16 6 0 11 5 11 11 0 5 4 8 9 4
6 -3 14 3 20 12 5 10 13 15 16 11 4 -4 20 6 35 22 15 16 31 26 35 22 4 -4 13
2 21 12 8 11 14 16 14 11 0 -4 11 4 25 19 14 15 30 24 37 20 7 -4 8 -3 4 4 -4
7 -1 12 9 12 9 0 14 4 11 9 -3 5 1 12 10 15 9 3 12 11 8 18 -5 9 -3 9 9 -1 12
-10 17 -10 17 -2 0 13 24 41 34 41 10 0 45 38 39 43 -2 3 5 8 16 12 11 3 23
15 26 26 4 11 11 16 17 13 7 -5 9 -1 5 9 -3 10 -2 17 4 17 18 0 90 80 83 92
-4 6 -3 8 4 4 6 -3 13 3 17 14 3 11 13 20 21 20 8 0 12 5 9 10 -3 6 0 13 9 16
8 3 12 12 9 20 -3 8 0 14 6 14 6 0 11 5 11 10 0 12 15 32 42 57 9 9 15 20 12
25 -3 4 -1 8 5 8 6 0 8 6 5 14 -3 7 2 16 11 20 9 3 14 10 11 15 -3 5 1 14 9
21 8 7 15 18 15 25 0 7 7 15 15 19 8 3 12 11 9 19 -3 8 2 20 11 27 8 7 15 23
15 36 0 13 5 24 12 24 6 0 8 3 5 7 -4 3 -2 12 4 20 6 7 8 13 4 13 -4 0 -2 6 4
14 11 13 20 42 24 76 1 8 5 17 9 20 8 6 19 54 21 88 1 12 4 22 7 22 3 0 7 12
8 26 1 15 8 34 15 42 9 13 9 14 0 8 -7 -4 -13 -3 -13 3 0 5 5 13 11 17 6 3 9
15 6 25 -3 10 -1 21 3 24 5 3 7 14 5 25 -2 11 -1 20 3 20 4 0 8 28 9 63 5 164
4 207 -1 216 -4 5 -2 12 4 16 6 4 7 11 4 17 -4 6 -7 25 -6 42 0 17 -4 36 -9
42 -7 8 -6 14 1 19 8 5 8 11 -1 21 -9 11 -9 14 1 14 9 0 9 4 2 13 -6 6 -13 35
-15 62 -3 28 -6 50 -7 50 -3 0 -11 38 -13 60 -1 11 -7 23 -14 28 -7 4 -10 14
-7 22 4 8 3 23 -1 33 -5 9 -10 28 -12 42 -2 13 -10 28 -16 32 -7 4 -8 8 -3 8
6 0 5 5 -2 12 -16 16 -15 31 1 22 6 -4 4 2 -5 13 -10 11 -18 25 -18 31 0 7 -5
12 -10 12 -6 0 -9 3 -8 8 3 14 -14 62 -23 62 -5 0 -6 7 -3 15 4 8 -1 17 -9 21
-9 3 -14 14 -12 25 2 10 0 19 -4 19 -9 0 -35 51 -33 63 1 4 -2 7 -8 7 -5 0
-10 7 -10 15 0 8 -4 15 -10 15 -5 0 -10 7 -10 15 0 8 -4 15 -10 15 -5 0 -10 7
-10 15 0 8 -9 24 -20 35 -12 12 -18 25 -15 30 4 6 -2 10 -11 10 -10 0 -15 3
-11 6 3 3 -2 14 -11 24 -33 36 -42 49 -42 60 0 5 -7 10 -16 10 -8 0 -12 5 -9
10 3 6 1 10 -5 10 -6 0 -8 5 -5 10 3 6 2 10 -4 10 -14 0 -140 128 -133 134 3
3 -1 6 -9 6 -7 0 -24 12 -36 27 -13 14 -23 22 -23 18 0 -4 -8 1 -17 11 -27 30
-113 97 -113 89 0 -5 -8 1 -17 12 -20 22 -64 48 -75 45 -5 -1 -8 3 -8 9 0 5
-4 7 -10 4 -5 -3 -10 1 -10 9 0 10 -6 13 -15 10 -8 -4 -17 1 -21 10 -3 9 -10
13 -15 10 -5 -3 -12 2 -15 11 -5 11 -10 13 -19 5 -9 -8 -14 -6 -19 5 -3 9 -10
13 -16 10 -5 -3 -10 -1 -10 5 0 6 -4 9 -9 5 -5 -3 -12 -1 -16 5 -4 6 -11 8
-16 5 -5 -4 -9 -1 -9 5 0 6 -4 8 -10 5 -5 -3 -10 0 -10 7 0 10 -2 10 -9 -1 -7
-10 -10 -10 -13 -1 -2 7 -15 14 -29 15 -13 1 -23 6 -22 11 1 5 -12 10 -29 11
-17 1 -35 6 -42 11 -6 5 -33 15 -61 22 -27 7 -55 17 -61 21 -6 5 -13 7 -15 4
-3 -2 -29 2 -59 10 -30 8 -72 15 -92 15 -21 0 -38 4 -38 8 0 4 -19 7 -42 7
-24 0 -46 5 -50 10 -5 6 -8 6 -8 -2 0 -8 -9 -9 -27 -4 -16 4 -44 4 -63 1 -19
-3 -42 -3 -50 0 -8 3 -26 4 -40 2z"/>
</g>
</svg>
